<svg width="68" height="68" viewBox="0 0 68 68" fill="none" xmlns="http://www.w3.org/2000/svg">
<path fill-rule="evenodd" clip-rule="evenodd" d="M16.0372 67.9206V22.4888H1.65861V67.9205H16.0372V67.9206ZM8.84942 16.2881C13.8619 16.2881 16.9844 12.7966 16.9844 8.43694C16.8896 3.9804 13.8619 0.587402 8.94341 0.587402C4.02408 0.58754 0.808594 3.98054 0.808594 8.43708C0.808594 12.7967 3.9293 16.2883 8.75477 16.2883L8.84942 16.2881ZM23.9952 67.9206C23.9952 67.9206 24.1838 26.7515 23.9952 22.4889H38.376V29.0775H38.2806C40.1715 25.9772 43.5781 21.4221 51.3347 21.4221C60.7978 21.4221 67.8908 27.9154 67.8908 41.8704V67.9207H53.5123V43.616C53.5123 37.5089 51.4319 33.3416 46.2269 33.3416C42.2552 33.3416 39.8883 36.1511 38.8489 38.8668C38.4686 39.8334 38.376 41.1912 38.376 42.549V67.9206H23.9952Z" fill="#085C00"/>
</svg>
