<svg width="19" height="19" viewBox="0 0 19 19" fill="none" xmlns="http://www.w3.org/2000/svg">
<path fill-rule="evenodd" clip-rule="evenodd" d="M4.31352 19V6.1801H0.240768V18.9999H4.31352V19ZM2.27757 4.4304C3.69738 4.4304 4.58181 3.44516 4.58181 2.21497C4.55496 0.95743 3.69738 0 2.3042 0C0.910791 3.88994e-05 0 0.957469 0 2.21501C0 3.4452 0.883944 4.43044 2.25076 4.43044L2.27757 4.4304ZM6.56763 19C6.56763 19 6.62107 7.38294 6.56763 6.18013H10.641V8.03929H10.614C11.1496 7.16444 12.1145 5.87909 14.3116 5.87909C16.992 5.87909 19.0011 7.71137 19.0011 11.6492V19H14.9284V12.1417C14.9284 10.4185 14.3391 9.24253 12.8648 9.24253C11.7398 9.24253 11.0694 10.0353 10.775 10.8016C10.6672 11.0744 10.641 11.4575 10.641 11.8407V19H6.56763Z" fill="#1E1E1E"/>
</svg>
