<svg width="225" height="61" viewBox="0 0 225 61" fill="none" xmlns="http://www.w3.org/2000/svg">
<path d="M80.8594 14.5625C80.7344 17.5104 80.6719 20.5417 80.6719 23.6562V28.3125H79.5312L79.1406 28.2969L73.5938 28.3438C73.2396 28.3438 73.0521 28.349 73.0312 28.3594C73.0312 28.349 73.0521 28.2604 73.0938 28.0938V28L73.1094 27.9375C73.0573 27.1875 73.0312 26.276 73.0312 25.2031L73.0938 7.75L73.0781 6.9375V6.15625L73.0469 4.6875C73.0469 4.58333 73.1042 4.47396 73.2188 4.35938H75.3594L76.6094 4.34375C79.5469 4.34375 81.6458 4.38542 82.9062 4.46875C84.1771 4.55208 85.0885 4.59375 85.6406 4.59375C85.9427 6.38542 86.3906 8.76042 86.9844 11.7188L88.0938 17.3125H88.6406L90.6406 7.09375C90.6719 6.9375 90.7448 6.48438 90.8594 5.73438C90.974 4.97396 91.0625 4.55208 91.125 4.46875H91.1875L101.359 4.375L101.969 4.39062H103.719C103.812 4.43229 103.865 4.625 103.875 4.96875L104.031 10.875C104.156 15.7708 104.245 19.5833 104.297 22.3125C104.297 24.4167 104.266 26.3906 104.203 28.2344C104.172 28.3594 103.964 28.4323 103.578 28.4531L102.875 28.4844C102.312 28.5052 101.896 28.5156 101.625 28.5156H100.812C99.8021 28.526 98.3125 28.5312 96.3438 28.5312C95.9792 28.2083 95.7969 26.8125 95.7969 24.3438L95.8281 19.4375V18.1719C95.8281 17.0573 95.8229 16.2344 95.8125 15.7031L95.2188 15.5938C94.875 16.8542 94.2135 19.6615 93.2344 24.0156L93.0938 24.6406C93.0208 24.9635 92.8958 25.5417 92.7188 26.375C92.5521 27.1979 92.4167 27.8229 92.3125 28.25C92.1875 28.3958 91.6354 28.4688 90.6562 28.4688H90.4531L88.7031 28.4219L87.75 28.4375H87.0156L85.7812 28.4531H85.3438C84.8646 28.4531 84.599 28.3438 84.5469 28.125L84.5625 28.1406L83.1406 21.9375C83.099 21.7812 83.0052 21.4427 82.8594 20.9219C82.7135 20.3906 82.6302 19.9479 82.6094 19.5938L81.4375 14.5312L80.8594 14.5625ZM128.548 4.45312L129.063 4.4375C129.167 4.48958 129.245 4.61979 129.298 4.82812L128.829 5.75V5.73438L127.813 7.6875C126.282 10.5208 125.292 12.4115 124.844 13.3594L124.313 14.375C123.74 15.4792 122.766 17.4271 121.391 20.2188C121.37 20.5729 121.36 21.1042 121.36 21.8125V28.2656C121.308 28.4323 121.204 28.5156 121.048 28.5156L112.094 28.5781C111.865 28.2865 111.751 27.9531 111.751 27.5781L111.782 25.625V25.1719L111.798 24.7031L111.813 23.5625C111.813 21.3854 111.256 19.0521 110.141 16.5625C109.902 16.0417 109.553 15.3073 109.094 14.3594L106.766 9.70312C106.704 9.58854 106.537 9.27083 106.266 8.75C105.995 8.22917 105.699 7.66667 105.376 7.0625V7.07812C104.542 5.80729 104.126 4.96354 104.126 4.54688C104.126 4.49479 104.292 4.46875 104.626 4.46875H108.641C110.86 4.46875 112.532 4.48438 113.657 4.51562C113.99 4.57812 114.86 7.08333 116.266 12.0312L116.969 14.5156C118.032 11.6823 119.152 8.35938 120.329 4.54688C120.339 4.46354 121.11 4.42188 122.641 4.42188H124.641C125.12 4.42188 125.521 4.43229 125.844 4.45312H128.548ZM79.7344 32.5L84.75 32.4531C85.8125 32.4531 86.776 32.474 87.6406 32.5156C89.9635 32.5781 91.7292 33.125 92.9375 34.1562C94.1562 35.1875 94.7656 36.6406 94.7656 38.5156C94.7656 39.8177 94.3854 40.9323 93.625 41.8594C92.8646 42.776 91.7552 43.5833 90.2969 44.2812C92.6094 45.0104 94.0104 46.7812 94.5 49.5938C94.6146 50.2083 94.7031 50.9115 94.7656 51.7031C94.8385 52.4948 94.8958 53.026 94.9375 53.2969L95.0938 54.0938C95.2604 55.0312 95.4062 55.7083 95.5312 56.125L95.4688 56.1719C93.6979 56.2865 92.0781 56.3438 90.6094 56.3438C89.151 56.3438 87.8594 56.3177 86.7344 56.2656H86.6406C86.3177 56.2656 85.974 54.7292 85.6094 51.6562L85.5312 50.9844C85.4896 49.8385 85.2865 49.0677 84.9219 48.6719C84.5677 48.276 83.9479 48.0781 83.0625 48.0781L82.8594 48.0938H82.0312V52.8438L82.0469 53.3438V56.2031C82.0156 56.3073 81.9375 56.3698 81.8125 56.3906C80.6667 56.4323 79.0469 56.4531 76.9531 56.4531C74.8698 56.4531 73.4948 56.4583 72.8281 56.4688L72.7344 56.4375L72.7031 56.4531C72.6823 56.4531 72.651 56.4375 72.6094 56.4062L72.6406 55L72.625 54.5312L72.6875 48.0469V46.9062L72.7031 45.7344L72.7188 41.6875L72.7344 41.1562L72.6875 37.6094C72.6875 37.6094 72.7083 35.9479 72.75 32.625C72.75 32.5417 73.0469 32.5 73.6406 32.5L74.6406 32.5156H75.5938L77.5781 32.5312L79.7344 32.5ZM95.625 56.0781L95.5469 56.125V56.0938C95.5469 56.0833 95.5729 56.0781 95.625 56.0781ZM95.5469 56.125V56.1406C95.5365 56.1406 95.5312 56.1354 95.5312 56.125H95.5469ZM85.5156 37.5938C84.8906 37.3229 84.0573 37.1875 83.0156 37.1875H82.1094C81.9948 37.3542 81.9375 38.2344 81.9375 39.8281C81.9375 41.4115 81.9635 42.474 82.0156 43.0156C85.276 42.9427 86.9062 41.8177 86.9062 39.6406C86.9062 38.7135 86.4427 38.0312 85.5156 37.5938ZM96.5475 36.6562L96.4694 32.5469C96.4798 32.5469 96.5163 32.5625 96.5788 32.5938C104.495 32.4583 110.459 32.3854 114.469 32.375C114.511 32.3958 114.542 32.4271 114.563 32.4688V36.875C114.563 37.3021 114.553 37.651 114.532 37.9219C114.48 38.0885 114.173 38.1719 113.61 38.1719H113.501C110.98 38.1719 108.355 38.1302 105.626 38.0469C105.626 38.1406 105.61 38.3073 105.579 38.5469C105.558 38.7865 105.542 38.9583 105.532 39.0625L105.454 39.6562C105.402 40.0521 105.365 40.7396 105.344 41.7188L110.188 41.6094C111.021 41.5885 111.626 41.5781 112.001 41.5781H112.251C112.886 41.5781 113.303 41.599 113.501 41.6406C113.699 41.6719 113.798 41.776 113.798 41.9531L113.782 42.0781V42.4531L113.86 46.4688L113.844 46.4844V46.4688C110.678 46.625 108.146 46.7031 106.251 46.7031H105.516V50.4844L114.001 50.2188C114.469 50.2188 114.766 50.2865 114.891 50.4219C114.881 50.6927 114.876 51.0781 114.876 51.5781L114.985 55.8281C114.985 56.0885 114.87 56.2396 114.641 56.2812L109.454 56.2344C108.433 56.2344 106.402 56.2708 103.36 56.3438L100.798 56.4062C98.985 56.4688 97.6413 56.5 96.7663 56.5L96.7194 56.4688H96.735C96.6308 56.3646 96.5319 56.2656 96.4381 56.1719V55.625L96.5319 38.9219L96.5475 36.6562ZM115.501 49.5469L123.767 49.4062C123.975 49.4062 124.147 49.5833 124.283 49.9375C124.428 50.2917 124.569 50.5729 124.704 50.7812C125.027 51.2812 125.559 51.5312 126.298 51.5312C127.048 51.5312 127.652 51.3594 128.111 51.0156C128.569 50.6615 128.798 50.2083 128.798 49.6562C128.798 49.1042 128.658 48.7292 128.376 48.5312C128.095 48.3229 127.788 48.125 127.454 47.9375C127.121 47.7396 126.626 47.5885 125.97 47.4844C125.324 47.3802 124.97 47.3177 124.908 47.2969H124.939L124.048 47.0625C123.475 46.9583 122.996 46.8438 122.611 46.7188C120.121 46.0521 118.319 45.2135 117.204 44.2031C116.1 43.1927 115.548 41.8333 115.548 40.125C115.548 38.8854 115.777 37.7708 116.236 36.7812C116.694 35.7917 117.293 34.9844 118.033 34.3594C120.168 32.5573 123.116 31.6562 126.876 31.6562C129.866 31.6562 132.215 32.1979 133.923 33.2812H133.908C135.001 34.0729 135.751 34.8542 136.158 35.625C136.564 36.3854 136.819 37.3281 136.923 38.4531L136.517 38.8594C133.777 38.9635 131.35 39.0156 129.236 39.0156C128.6 39.0156 128.22 38.8281 128.095 38.4531C128.043 38.2969 127.986 38.1406 127.923 37.9844C127.777 37.6094 127.309 37.4219 126.517 37.4219H126.454C125.84 37.4219 125.314 37.5677 124.876 37.8594C124.439 38.1406 124.215 38.4167 124.204 38.6875C124.204 38.9583 124.262 39.1823 124.376 39.3594C124.501 39.5365 124.631 39.6771 124.767 39.7812C124.902 39.8854 125.111 39.9948 125.392 40.1094C125.673 40.2135 125.881 40.2865 126.017 40.3281C126.163 40.3594 126.387 40.4167 126.689 40.5L127.236 40.6406C127.454 40.7031 128.09 40.8594 129.142 41.1094C130.204 41.3594 131.09 41.599 131.798 41.8281V41.8125C134.017 42.5625 135.527 43.5 136.329 44.625C137.142 45.7396 137.548 47.0417 137.548 48.5312C137.548 52.5 135.178 55.0729 130.439 56.25C129.064 56.5938 127.595 56.8385 126.033 56.9844C124.116 56.9844 122.22 56.7031 120.345 56.1406C118.47 55.5781 117.215 54.6615 116.579 53.3906C116.152 52.776 115.866 52.2135 115.72 51.7031C115.574 51.1823 115.454 50.4583 115.361 49.5312C115.392 49.5417 115.439 49.5469 115.501 49.5469ZM161.236 43.8906L161.189 48.2812C161.189 49.625 160.971 50.8125 160.533 51.8438C160.106 52.875 159.538 53.7083 158.83 54.3438C156.903 56.0938 154.054 56.9688 150.283 56.9688C146.512 56.9688 143.58 56.0521 141.486 54.2188C140.747 53.5833 140.122 52.7604 139.611 51.75C139.111 50.7292 138.809 49.5781 138.705 48.2969C138.757 43.9427 138.783 39.9167 138.783 36.2188C138.731 36.2188 138.705 35.6719 138.705 34.5781C138.705 33.4844 138.752 32.8073 138.846 32.5469H139.174C140.705 32.4635 142.794 32.4219 145.439 32.4219C145.627 32.4635 145.965 32.4896 146.455 32.5C146.955 32.5104 147.299 32.526 147.486 32.5469L147.971 32.6094C148.044 34.6719 148.09 37.5104 148.111 41.125L148.018 47.4062C148.018 49.4896 148.622 50.5312 149.83 50.5312C150.34 50.5312 150.768 50.3073 151.111 49.8594C151.465 49.4115 151.653 48.9062 151.674 48.3438L151.736 48.1875L151.783 42.9219L151.799 42.4531C151.799 40.0365 151.768 37.7031 151.705 35.4531L151.674 34.3125C151.653 33.8542 151.643 33.4427 151.643 33.0781C151.643 32.7135 151.7 32.4635 151.814 32.3281C155.835 32.3281 158.866 32.3438 160.908 32.375C160.981 32.4479 161.075 32.5156 161.189 32.5781H161.174L161.346 32.6875C161.262 34.6562 161.221 37.1875 161.221 40.2812V42.9688L161.236 43.8906ZM171.549 42.5625C171.424 45.5104 171.362 48.5417 171.362 51.6562V56.3125H170.221L169.831 56.2969L164.284 56.3438C163.93 56.3438 163.742 56.349 163.721 56.3594C163.721 56.349 163.742 56.2604 163.784 56.0938V56L163.799 55.9375C163.747 55.1875 163.721 54.276 163.721 53.2031L163.784 35.75L163.768 34.9375V34.1562L163.737 32.6875C163.737 32.5833 163.794 32.474 163.909 32.3594H166.049L167.299 32.3438C170.237 32.3438 172.336 32.3854 173.596 32.4688C174.867 32.5521 175.779 32.5938 176.331 32.5938C176.633 34.3854 177.081 36.7604 177.674 39.7188L178.784 45.3125H179.331L181.331 35.0938C181.362 34.9375 181.435 34.4844 181.549 33.7344C181.664 32.974 181.753 32.5521 181.815 32.4688H181.878L192.049 32.375L192.659 32.3906H194.409C194.503 32.4323 194.555 32.625 194.565 32.9688L194.721 38.875C194.846 43.7708 194.935 47.5833 194.987 50.3125C194.987 52.4167 194.956 54.3906 194.893 56.2344C194.862 56.3594 194.654 56.4323 194.268 56.4531L193.565 56.4844C193.003 56.5052 192.586 56.5156 192.315 56.5156H191.503C190.492 56.526 189.003 56.5312 187.034 56.5312C186.669 56.2083 186.487 54.8125 186.487 52.3438L186.518 47.4375V46.1719C186.518 45.0573 186.513 44.2344 186.503 43.7031L185.909 43.5938C185.565 44.8542 184.904 47.6615 183.924 52.0156L183.784 52.6406C183.711 52.9635 183.586 53.5417 183.409 54.375C183.242 55.1979 183.107 55.8229 183.003 56.25C182.878 56.3958 182.325 56.4688 181.346 56.4688H181.143L179.393 56.4219L178.44 56.4375H177.706L176.471 56.4531H176.034C175.555 56.4531 175.289 56.3438 175.237 56.125L175.253 56.1406L173.831 49.9375C173.789 49.7812 173.695 49.4427 173.549 48.9219C173.404 48.3906 173.32 47.9479 173.299 47.5938L172.128 42.5312L171.549 42.5625ZM197.113 36.6562L197.034 32.5469C197.045 32.5469 197.081 32.5625 197.144 32.5938C205.06 32.4583 211.024 32.3854 215.034 32.375C215.076 32.3958 215.107 32.4271 215.128 32.4688V36.875C215.128 37.3021 215.118 37.651 215.097 37.9219C215.045 38.0885 214.738 38.1719 214.175 38.1719H214.066C211.545 38.1719 208.92 38.1302 206.191 38.0469C206.191 38.1406 206.175 38.3073 206.144 38.5469C206.123 38.7865 206.107 38.9583 206.097 39.0625L206.019 39.6562C205.967 40.0521 205.93 40.7396 205.909 41.7188L210.753 41.6094C211.586 41.5885 212.191 41.5781 212.566 41.5781H212.816C213.451 41.5781 213.868 41.599 214.066 41.6406C214.264 41.6719 214.363 41.776 214.363 41.9531L214.347 42.0781V42.4531L214.425 46.4688L214.409 46.4844V46.4688C211.243 46.625 208.711 46.7031 206.816 46.7031H206.081V50.4844L214.566 50.2188C215.034 50.2188 215.331 50.2865 215.456 50.4219C215.446 50.6927 215.441 51.0781 215.441 51.5781L215.55 55.8281C215.55 56.0885 215.435 56.2396 215.206 56.2812L210.019 56.2344C208.998 56.2344 206.967 56.2708 203.925 56.3438L201.363 56.4062C199.55 56.4688 198.206 56.5 197.331 56.5L197.284 56.4688H197.3C197.196 56.3646 197.097 56.2656 197.003 56.1719V55.625L197.097 38.9219L197.113 36.6562Z" fill="#1E1E1E"/>
<path d="M53.375 38.125V48.2917C53.375 49.6399 52.8394 50.9328 51.8861 51.8861C50.9328 52.8394 49.6399 53.375 48.2917 53.375H12.7083C11.3601 53.375 10.0672 52.8394 9.11387 51.8861C8.16056 50.9328 7.625 49.6399 7.625 48.2917V38.125" stroke="black" stroke-width="6.6" stroke-linecap="round" stroke-linejoin="round"/>
<path d="M17.7916 25.4167L30.5 38.1251L43.2083 25.4167" stroke="black" stroke-width="6.6" stroke-linecap="round" stroke-linejoin="round"/>
<path d="M30.5 38.125V7.625" stroke="black" stroke-width="6.6" stroke-linecap="round" stroke-linejoin="round"/>
</svg>
