<svg width="50" height="49" viewBox="0 0 50 49" fill="none" xmlns="http://www.w3.org/2000/svg">
<g clip-path="url(#clip0_2002_1192)">
<path d="M33.5624 32.3132C38.0824 32.3132 41.7466 28.7029 41.7466 24.2495C41.7466 19.796 38.0824 16.1858 33.5624 16.1858C29.0424 16.1858 25.3782 19.796 25.3782 24.2495C25.3782 28.7029 29.0424 32.3132 33.5624 32.3132Z" fill="#19BCFE"/>
<path fill-rule="evenodd" clip-rule="evenodd" d="M17.194 48.4406C21.714 48.4406 25.3781 44.8304 25.3781 40.3769C25.3781 39.1612 25.3781 36.4733 25.3781 32.3132C21.7015 32.3132 18.9734 32.3132 17.194 32.3132C12.674 32.3132 9.00977 35.9235 9.00977 40.3769C9.00977 44.8304 12.674 48.4406 17.194 48.4406Z" fill="#09CF83"/>
<path fill-rule="evenodd" clip-rule="evenodd" d="M17.194 32.3132C18.7006 32.3132 21.4287 32.3132 25.3781 32.3132V16.1858C21.4287 16.1858 18.7006 16.1858 17.194 16.1858C12.674 16.1858 9.00977 19.796 9.00977 24.2495C9.00977 28.7029 12.674 32.3132 17.194 32.3132Z" fill="#A259FF"/>
<path fill-rule="evenodd" clip-rule="evenodd" d="M17.194 16.1858C18.7006 16.1858 21.4287 16.1858 25.3781 16.1858V0.0584717C21.4287 0.0584717 18.7006 0.0584717 17.194 0.0584717C12.674 0.0584717 9.00977 3.6687 9.00977 8.12215C9.00977 12.5756 12.674 16.1858 17.194 16.1858Z" fill="#F24E1E"/>
<path fill-rule="evenodd" clip-rule="evenodd" d="M33.5624 16.1858H25.3782V0.0584717H33.5624C38.0824 0.0584717 41.7466 3.6687 41.7466 8.12215C41.7466 12.5756 38.0824 16.1858 33.5624 16.1858Z" fill="#FF7262"/>
</g>
<defs>
<clipPath id="clip0_2002_1192">
<rect width="49.1051" height="48.3821" fill="white" transform="translate(0.825562 0.0584717)"/>
</clipPath>
</defs>
</svg>
