<svg width="68" height="68" viewBox="0 0 68 68" fill="none" xmlns="http://www.w3.org/2000/svg">
<g clip-path="url(#clip0_2110_337)">
<path fill-rule="evenodd" clip-rule="evenodd" d="M34.4608 0.666748C52.9844 0.666748 67.9999 16.1195 67.9999 35.1849C67.9999 50.4326 58.401 63.3674 45.0826 67.936C43.3822 68.276 42.7785 67.198 42.7785 66.2789C42.7785 65.141 42.8187 61.4243 42.8187 56.8053C42.8187 53.5867 41.7455 51.4861 40.5414 50.4155C48.0106 49.5604 55.8587 46.6412 55.8587 33.3833C55.8587 29.6126 54.5574 26.5356 52.4042 24.1183C52.753 23.2464 53.9034 19.7354 52.0755 14.9817C52.0755 14.9817 49.2649 14.0567 42.8623 18.5209C40.1825 17.7567 37.3116 17.3722 34.4608 17.3587C31.6099 17.3722 28.7423 17.7567 26.0659 18.5209C19.6566 14.0567 16.8393 14.9817 16.8393 14.9817C15.0181 19.7354 16.1685 23.2464 16.514 24.1183C14.3708 26.5356 13.0595 29.6126 13.0595 33.3833C13.0595 46.6075 20.8908 49.5715 28.3399 50.4434C27.3807 51.3053 26.512 52.8257 26.2101 55.0578C24.2984 55.9399 19.4419 57.4665 16.4502 52.1909C16.4502 52.1909 14.676 48.8743 11.3087 48.6319C11.3087 48.6319 8.03863 48.5883 11.0806 50.7295C11.0806 50.7295 13.2774 51.79 14.8035 55.7795C14.8035 55.7795 16.7722 61.9403 26.1028 59.853C26.1196 62.7382 26.1498 65.4575 26.1498 66.2789C26.1498 67.1913 25.5326 68.2591 23.859 67.9393C10.5306 63.3774 0.921631 50.4359 0.921631 35.1849C0.921631 16.1195 15.9405 0.666748 34.4608 0.666748Z" fill="#085C00"/>
</g>
<defs>
<clipPath id="clip0_2110_337">
<rect width="67.0783" height="67.3333" fill="white" transform="translate(0.921631 0.666748)"/>
</clipPath>
</defs>
</svg>
