<svg width="72" height="71" viewBox="0 0 72 71" fill="none" xmlns="http://www.w3.org/2000/svg">
<path fill-rule="evenodd" clip-rule="evenodd" d="M35.9046 3.21729C27.153 3.21729 26.0575 3.25393 22.6204 3.41135C19.1899 3.56878 16.8462 4.11647 14.7969 4.91645C12.6488 5.72724 10.7004 6.99945 9.08926 8.6469C7.4507 10.2623 6.18253 12.2167 5.37298 14.3741C4.58031 16.4312 4.03253 18.7859 3.87571 22.2295C3.72104 25.6775 3.68237 26.775 3.68237 35.562C3.68237 44.3491 3.71888 45.4466 3.87571 48.8968C4.03253 52.3402 4.57815 54.693 5.3751 56.7501C6.18282 58.9062 7.45021 60.8621 9.09142 62.4793C10.7007 64.1241 12.6477 65.3971 14.7969 66.2096C16.8462 67.0076 19.1899 67.5552 22.6204 67.7127C26.0575 67.8702 27.153 67.9068 35.9046 67.9068C44.6562 67.9068 45.7517 67.8702 49.1888 67.7127C52.6192 67.5552 54.9631 67.0076 57.0124 66.2077C59.1603 65.3968 61.1088 64.1247 62.7199 62.4771C64.3584 60.8618 65.6267 58.9075 66.4361 56.7501C67.231 54.693 67.7766 52.3402 67.9335 48.8968C68.0904 45.4466 68.1268 44.3469 68.1268 35.562C68.1268 26.7772 68.0904 25.6775 67.9335 22.2274C67.7766 18.7837 67.231 16.4312 66.4342 14.3741C65.6251 12.2157 64.3568 10.2605 62.7177 8.64473C61.1085 6.99994 59.1616 5.72695 57.0124 4.91432C54.9631 4.11864 52.6173 3.56878 49.1866 3.41135C45.7517 3.2561 44.6584 3.21729 35.9046 3.21729ZM35.9046 9.04581C44.5079 9.04581 45.5284 9.07815 48.9266 9.23341C52.0673 9.37789 53.7728 9.90188 54.9093 10.3482C56.4131 10.9326 57.487 11.6356 58.6148 12.7655C59.7426 13.8975 60.4408 14.9757 61.0228 16.4851C61.4655 17.6258 61.9894 19.3379 62.1335 22.4905C62.2881 25.9017 62.3204 26.926 62.3204 35.562C62.3204 44.1981 62.2881 45.2224 62.1335 48.6335C61.9894 51.7862 61.4674 53.4982 61.0228 54.639C60.5072 56.044 59.6843 57.3148 58.6148 58.3586C57.5753 59.4325 56.309 60.2585 54.9093 60.7757C53.7728 61.2201 52.0673 61.7461 48.9266 61.8907C45.5284 62.0459 44.5102 62.0783 35.9046 62.0783C27.2991 62.0783 26.2809 62.0459 22.8825 61.8907C19.7419 61.7461 18.0363 61.2221 16.8999 60.7757C15.5003 60.2582 14.2341 59.4321 13.1944 58.3586C12.125 57.3148 11.3021 56.0437 10.7863 54.639C10.3438 53.4982 9.81964 51.7862 9.67571 48.6335C9.52104 45.2224 9.48882 44.1981 9.48882 35.562C9.48882 26.926 9.52104 25.9017 9.67571 22.4905C9.81964 19.3379 10.3416 17.6258 10.7863 16.4851C11.3684 14.9757 12.0688 13.8975 13.1944 12.7655C14.234 11.6917 15.5002 10.8657 16.8999 10.3482C18.0363 9.90401 19.7419 9.37789 22.8825 9.23341C26.2809 9.07815 27.3013 9.04581 35.9046 9.04581Z" fill="#085C00"/>
<path fill-rule="evenodd" clip-rule="evenodd" d="M35.9044 46.354C34.4925 46.354 33.0947 46.0749 31.79 45.5325C30.4856 44.99 29.3004 44.195 28.3021 43.193C27.3037 42.1906 26.5117 41.001 25.9714 39.6917C25.4311 38.3823 25.153 36.9789 25.153 35.5616C25.153 34.1442 25.4311 32.7408 25.9714 31.4314C26.5117 30.1221 27.3037 28.9324 28.3021 27.9302C29.3004 26.928 30.4856 26.1331 31.79 25.5907C33.0947 25.0483 34.4925 24.7692 35.9044 24.7692C38.7561 24.7692 41.4905 25.9062 43.507 27.9302C45.5231 29.9543 46.656 32.6994 46.656 35.5616C46.656 38.4237 45.5231 41.1688 43.507 43.193C41.4905 45.2168 38.7561 46.354 35.9044 46.354ZM35.9044 18.9364C31.5119 18.9364 27.2992 20.6879 24.1932 23.8058C21.0872 26.9236 19.3423 31.1523 19.3423 35.5616C19.3423 39.9708 21.0872 44.1995 24.1932 47.3172C27.2992 50.4353 31.5119 52.1867 35.9044 52.1867C40.297 52.1867 44.5097 50.4353 47.6156 47.3172C50.7218 44.1995 52.4667 39.9708 52.4667 35.5616C52.4667 31.1523 50.7218 26.9236 47.6156 23.8058C44.5097 20.6879 40.297 18.9364 35.9044 18.9364ZM57.2849 18.6345C57.2849 19.6767 56.8724 20.6763 56.1384 21.4133C55.404 22.1503 54.4084 22.5644 53.3702 22.5644C52.3317 22.5644 51.336 22.1503 50.6016 21.4133C49.8676 20.6763 49.4548 19.6767 49.4548 18.6345C49.4548 17.5922 49.8676 16.5926 50.6016 15.8556C51.336 15.1186 52.3317 14.7046 53.3702 14.7046C54.4084 14.7046 55.404 15.1186 56.1384 15.8556C56.8724 16.5926 57.2849 17.5922 57.2849 18.6345Z" fill="#085C00"/>
</svg>
