<svg width="20" height="20" viewBox="0 0 20 20" fill="none" xmlns="http://www.w3.org/2000/svg">
<g clip-path="url(#clip0_2110_504)">
<path fill-rule="evenodd" clip-rule="evenodd" d="M10 0.873047C7.52114 0.873047 7.21082 0.883388 6.23728 0.927809C5.26556 0.97223 4.60172 1.12678 4.02124 1.35251C3.41279 1.5813 2.8609 1.94029 2.40455 2.40517C1.94043 2.86099 1.58122 3.41247 1.35191 4.02124C1.12739 4.60172 0.97223 5.26617 0.927809 6.23789C0.883999 7.21082 0.873047 7.52053 0.873047 10C0.873047 12.4796 0.883388 12.7892 0.927809 13.7628C0.97223 14.7345 1.12678 15.3984 1.35251 15.9788C1.5813 16.5872 1.94029 17.1392 2.40517 17.5955C2.861 18.0596 3.41248 18.4189 4.02124 18.6481C4.60172 18.8733 5.26556 19.0278 6.23728 19.0723C7.21082 19.1167 7.52114 19.127 10 19.127C12.4789 19.127 12.7892 19.1167 13.7628 19.0723C14.7345 19.0278 15.3984 18.8733 15.9788 18.6476C16.5872 18.4188 17.1392 18.0598 17.5955 17.5949C18.0596 17.1391 18.4189 16.5876 18.6481 15.9788C18.8733 15.3984 19.0278 14.7345 19.0723 13.7628C19.1167 12.7892 19.127 12.4789 19.127 10C19.127 7.52114 19.1167 7.21082 19.0723 6.23728C19.0278 5.26556 18.8733 4.60172 18.6476 4.02124C18.4184 3.41221 18.0592 2.86049 17.5949 2.40455C17.1391 1.94043 16.5876 1.58122 15.9788 1.35191C15.3984 1.12739 14.7339 0.97223 13.7622 0.927809C12.7892 0.883999 12.4796 0.873047 10 0.873047ZM10 2.51773C12.4369 2.51773 12.726 2.52686 13.6885 2.57067C14.5781 2.61144 15.0612 2.75929 15.3831 2.88525C15.8091 3.05013 16.1133 3.2485 16.4327 3.56733C16.7522 3.88678 16.95 4.19101 17.1148 4.61694C17.2402 4.93882 17.3886 5.42194 17.4294 6.31152C17.4732 7.2741 17.4823 7.56313 17.4823 10C17.4823 12.4369 17.4732 12.726 17.4294 13.6885C17.3886 14.5781 17.2407 15.0612 17.1148 15.3831C16.9688 15.7796 16.7357 16.1382 16.4327 16.4327C16.1383 16.7357 15.7796 16.9688 15.3831 17.1148C15.0612 17.2402 14.5781 17.3886 13.6885 17.4294C12.726 17.4732 12.4376 17.4823 10 17.4823C7.56251 17.4823 7.2741 17.4732 6.31152 17.4294C5.42194 17.3886 4.93882 17.2407 4.61694 17.1148C4.2205 16.9688 3.86183 16.7357 3.56733 16.4327C3.26443 16.1382 3.03135 15.7795 2.88525 15.3831C2.7599 15.0612 2.61144 14.5781 2.57067 13.6885C2.52686 12.726 2.51773 12.4369 2.51773 10C2.51773 7.56313 2.52686 7.2741 2.57067 6.31152C2.61144 5.42194 2.75929 4.93882 2.88525 4.61694C3.05013 4.19101 3.2485 3.88678 3.56733 3.56733C3.8618 3.26434 4.22047 3.03126 4.61694 2.88525C4.93882 2.7599 5.42194 2.61144 6.31152 2.57067C7.2741 2.52686 7.56313 2.51773 10 2.51773Z" fill="#1E1E1E"/>
<path fill-rule="evenodd" clip-rule="evenodd" d="M10.0001 13.0455C9.60014 13.0455 9.20422 12.9668 8.83466 12.8137C8.4652 12.6606 8.12949 12.4363 7.84671 12.1535C7.56391 11.8707 7.33959 11.535 7.18655 11.1656C7.0335 10.7961 6.95473 10.4001 6.95473 10.0001C6.95473 9.60018 7.0335 9.20416 7.18655 8.8347C7.33959 8.46524 7.56391 8.12951 7.84671 7.84672C8.12949 7.56393 8.4652 7.33962 8.83466 7.18657C9.20422 7.03353 9.60014 6.95475 10.0001 6.95475C10.8078 6.95475 11.5823 7.2756 12.1535 7.84672C12.7246 8.41787 13.0455 9.19248 13.0455 10.0001C13.0455 10.8078 12.7246 11.5824 12.1535 12.1535C11.5823 12.7246 10.8078 13.0455 10.0001 13.0455ZM10.0001 5.30886C8.7559 5.30886 7.56265 5.80311 6.68288 6.6829C5.80309 7.56268 5.30884 8.75594 5.30884 10.0001C5.30884 11.2443 5.80309 12.4376 6.68288 13.3173C7.56265 14.1972 8.7559 14.6914 10.0001 14.6914C11.2443 14.6914 12.4375 14.1972 13.3173 13.3173C14.1971 12.4376 14.6914 11.2443 14.6914 10.0001C14.6914 8.75594 14.1971 7.56268 13.3173 6.6829C12.4375 5.80311 11.2443 5.30886 10.0001 5.30886ZM16.0561 5.22367C16.0561 5.51777 15.9393 5.79983 15.7314 6.0078C15.5234 6.21577 15.2414 6.3326 14.9473 6.3326C14.6531 6.3326 14.3711 6.21577 14.1631 6.0078C13.9552 5.79983 13.8383 5.51777 13.8383 5.22367C13.8383 4.92957 13.9552 4.64751 14.1631 4.43954C14.3711 4.23158 14.6531 4.11475 14.9473 4.11475C15.2414 4.11475 15.5234 4.23158 15.7314 4.43954C15.9393 4.64751 16.0561 4.92957 16.0561 5.22367Z" fill="#1E1E1E"/>
</g>
<defs>
<clipPath id="clip0_2110_504">
<rect width="20" height="20" fill="white"/>
</clipPath>
</defs>
</svg>
