<svg width="726" height="128" viewBox="0 0 726 128" fill="none" xmlns="http://www.w3.org/2000/svg">
<path d="M128.267 2.52539L134.214 2.49121H147.51C147.601 2.49121 147.669 2.514 147.715 2.55957L148.945 10.5576C149.264 12.8818 149.777 16.391 150.483 21.085C151.213 25.7562 151.668 28.707 151.851 29.9375L152.124 31.7832H153.423C154.015 25.1979 155.132 16.5277 156.772 5.77246L156.909 4.98633C156.932 4.80404 156.943 4.55339 156.943 4.23438C156.966 3.6875 157.069 3.24316 157.251 2.90137C157.456 2.53678 158.06 2.35449 159.062 2.35449C166.377 2.35449 171.72 2.55957 175.093 2.96973C175.184 3.06087 175.275 3.32292 175.366 3.75586C174.819 6.30794 173.919 10.2842 172.666 15.6846C171.413 21.085 170.479 25.1979 169.863 28.0234L169.59 29.2881C169.544 29.4248 169.396 29.835 169.146 30.5186C168.918 31.2021 168.815 31.6807 168.838 31.9541L166.445 42.7891L165.352 48.1553C164.736 51.1859 164.315 53.362 164.087 54.6836L163.916 54.6152C162.321 54.7064 159.894 54.752 156.636 54.752H151.304L149.458 54.7178C146.883 54.7178 144.536 54.7633 142.417 54.8545C142.212 54.8545 141.882 53.0544 141.426 49.4541C140.97 45.8538 140.719 43.9284 140.674 43.6777L140.366 41.9688C139.637 37.1836 138.908 32.1364 138.179 26.8271L136.914 26.793C135.615 33.4922 134.465 41.627 133.462 51.1973C133.211 53.7038 132.721 55.014 131.992 55.1279C128.734 55.014 125.578 54.957 122.524 54.957C119.471 54.957 115.552 55.0368 110.767 55.1963C110.106 54.6722 109.604 53.2936 109.263 51.0605L109.058 49.7275C108.192 45.1247 106.392 36.6481 103.657 24.2979L102.939 20.9824C102.666 19.6608 102.096 17.0518 101.23 13.1553C100.365 9.236 99.624 5.76107 99.0088 2.73047C99.0316 2.54818 99.1911 2.38867 99.4873 2.25195C100.011 2.32031 100.57 2.35449 101.162 2.35449H101.572L104.819 2.25195L109.536 2.14941C111.086 2.14941 112.282 2.18359 113.125 2.25195H115.278C115.483 2.25195 115.859 2.27474 116.406 2.32031H116.885C117.614 2.32031 118.639 8.01693 119.961 19.4102C120.553 24.5599 120.907 27.5677 121.021 28.4336L121.26 30.3818L122.593 30.416C123.436 25.1296 124.37 18.9544 125.396 11.8906C125.396 11.0703 125.578 9.44108 125.942 7.00293C126.307 4.56478 126.683 3.06087 127.07 2.49121C127.321 2.514 127.72 2.52539 128.267 2.52539ZM194.404 28.0234C194.404 28.0462 194.393 28.1032 194.37 28.1943V28.2969C194.279 29.2539 194.233 30.3249 194.233 31.5098C194.233 32.6947 194.325 33.9479 194.507 35.2695C194.712 36.5911 195.031 37.9128 195.464 39.2344C195.92 40.556 196.615 41.627 197.549 42.4473C198.551 43.3132 199.668 43.7461 200.898 43.7461C202.152 43.7461 203.2 43.5752 204.043 43.2334C204.909 42.8688 205.627 42.4131 206.196 41.8662C206.789 41.3193 207.301 40.5788 207.734 39.6445C208.828 37.1608 209.375 33.3099 209.375 28.0918C209.375 22.7826 208.76 19.0684 207.529 16.9492C206.322 14.8073 204.487 13.7363 202.026 13.7363C200.796 13.7363 199.714 14.0326 198.779 14.625C197.868 15.2174 197.173 15.8327 196.694 16.4707C196.239 17.1087 195.76 18.4645 195.259 20.5381C194.78 22.6117 194.541 24.5257 194.541 26.2803L194.404 28.0234ZM174.751 28.2969L174.819 27.5449C175.093 24.6966 175.457 22.1787 175.913 19.9912C176.369 17.7809 177.109 15.7188 178.135 13.8047C180.573 9.58919 183.968 6.39909 188.32 4.23438C192.695 2.04688 197.401 0.953125 202.437 0.953125C207.495 0.953125 212.087 1.96712 216.211 3.99512C218.672 5.2028 220.597 6.72949 221.987 8.5752C224.653 11.902 226.408 14.9668 227.251 17.7695C228.094 20.5723 228.516 23.8079 228.516 27.4766C228.516 35.6341 226.829 41.8548 223.457 46.1387L221.885 48.2236C219.766 50.6846 216.769 52.5872 212.896 53.9316C209.022 55.2533 205.182 55.9368 201.377 55.9824C194.86 55.9824 189.517 54.6152 185.347 51.8809C178.283 47.3008 174.751 39.4395 174.751 28.2969ZM248.921 2.59375L259.893 2.49121C262.217 2.49121 264.325 2.53678 266.216 2.62793C271.297 2.76465 275.16 3.96094 277.803 6.2168C280.469 8.47266 281.802 11.6514 281.802 15.7529C281.802 18.6012 280.97 21.0394 279.307 23.0674C277.643 25.0726 275.216 26.8385 272.026 28.3652C277.085 29.9603 280.15 33.834 281.221 39.9863C281.471 41.3307 281.665 42.8688 281.802 44.6006C281.961 46.3324 282.087 47.4945 282.178 48.0869L282.52 49.8301C282.884 51.8809 283.203 53.362 283.477 54.2734L283.34 54.376C279.466 54.6266 275.923 54.752 272.71 54.752C269.52 54.752 266.694 54.695 264.233 54.5811H264.028C263.322 54.5811 262.57 51.2201 261.772 44.498L261.602 43.0283C261.51 40.5218 261.066 38.8356 260.269 37.9697C259.494 37.1038 258.138 36.6709 256.201 36.6709L255.757 36.7051H253.945V47.0957L253.979 48.1895V54.4443C253.911 54.6722 253.74 54.8089 253.467 54.8545C250.96 54.9456 247.417 54.9912 242.837 54.9912C238.28 54.9912 235.272 55.0026 233.813 55.0254L233.608 54.957L233.54 54.9912C233.494 54.9912 233.426 54.957 233.335 54.8887L233.403 51.8125L233.369 50.7871L233.506 36.6025V34.1074L233.54 31.5439L233.574 22.6914L233.608 21.5293L233.506 13.7705C233.506 13.7705 233.551 10.1361 233.643 2.86719C233.643 2.6849 234.292 2.59375 235.591 2.59375L237.778 2.62793H239.863L244.204 2.66211L248.921 2.59375ZM283.682 54.1709L283.511 54.2734V54.2051C283.511 54.1823 283.568 54.1709 283.682 54.1709ZM283.511 54.2734V54.3076C283.488 54.3076 283.477 54.2962 283.477 54.2734H283.511ZM261.567 13.7363C260.2 13.1439 258.377 12.8477 256.099 12.8477H254.116C253.866 13.2122 253.74 15.1377 253.74 18.624C253.74 22.0876 253.797 24.4118 253.911 25.5967C261.043 25.4372 264.609 22.9762 264.609 18.2139C264.609 16.1859 263.595 14.6934 261.567 13.7363ZM287.134 7.51562L287.031 4.57617C287.031 3.32292 287.157 2.54818 287.407 2.25195C288.022 2.22917 289.185 2.21777 290.894 2.21777C292.625 2.21777 294.118 2.22917 295.371 2.25195L300.19 2.32031C301.079 2.25195 302.367 2.21777 304.053 2.21777C305.739 2.21777 306.81 2.44564 307.266 2.90137C307.152 8.46126 307.095 15.0693 307.095 22.7256L308.291 22.9307C308.633 22.042 309.248 20.709 310.137 18.9316C311.048 17.1543 311.572 16.1175 311.709 15.8213L312.085 15.001C312.176 14.7959 312.586 13.9186 313.315 12.3691C314.067 10.7969 314.831 9.04232 315.605 7.10547C316.38 5.14583 317.212 3.60775 318.101 2.49121C319.696 2.46842 321.632 2.45703 323.911 2.45703C326.213 2.45703 328.89 2.5026 331.943 2.59375C334.997 2.66211 337.287 2.69629 338.813 2.69629C332.319 14.4313 327.705 22.5547 324.971 27.0664L325.757 28.3311C326.691 29.4932 328.73 32.8086 331.875 38.2773C335.02 43.7461 337.298 47.6312 338.711 49.9326L339.531 51.2656C340.534 52.929 341.035 53.8747 341.035 54.1025C341.035 54.3304 340.967 54.5355 340.83 54.7178H340.625C339.349 54.6722 338.312 54.6494 337.515 54.6494C336.74 54.6494 335.715 54.6722 334.438 54.7178H319.092C315.583 48.1553 311.937 41.0345 308.154 33.3555C307.972 35.1784 307.699 39.485 307.334 46.2754V46.7197L307.402 54.4785C307.129 54.8887 305.933 55.0938 303.813 55.0938L303.096 55.0596H301.25L291.577 55.1279H288.433C287.795 55.1279 287.339 54.8887 287.065 54.4102L286.963 54.3076V49.1123L287.031 43.7461V24.4346L287.134 7.51562ZM342.983 50.3428C342.983 45.7171 343.109 42.5042 343.359 40.7041C343.359 30.792 343.496 20.8001 343.77 10.7285C343.701 9.29297 343.667 7.84603 343.667 6.3877V5.25977C343.576 4.55339 343.53 3.92676 343.53 3.37988C343.53 2.83301 343.587 2.47982 343.701 2.32031C348.577 2.61654 352.85 2.76465 356.519 2.76465C360.187 2.76465 362.705 2.69629 364.072 2.55957C364.118 2.62793 364.152 2.82161 364.175 3.14062H363.936V15.5137L364.175 43.3359C364.175 43.541 364.209 43.7119 364.277 43.8486V43.917C364.346 44.0537 364.38 44.2018 364.38 44.3613L364.653 54.3076C364.539 54.5583 364.334 54.752 364.038 54.8887H362.876L343.735 55.1963C343.507 55.0824 343.211 54.9115 342.847 54.6836L342.881 54.1025L342.983 50.3428ZM423.853 30.0742L423.818 32.3643V45.0107L423.887 51.0264V52.7354L423.921 54.3418C423.784 54.5241 423.226 54.6152 422.246 54.6152H421.357L410.625 54.752C406.068 54.752 402.673 54.7406 400.439 54.7178C400.098 54.3532 398.856 51.0378 396.714 44.7715L390.186 27.4424L388.955 27.6133L388.921 31.0996V40.3623L389.058 49.625V53.4531C389.058 54.4785 388.83 55.014 388.374 55.0596C386.118 54.9912 383.965 54.957 381.914 54.957H380.854L375.693 55.0938H375.01L372.549 55.1621L372.446 55.0938C371.694 54.3874 371.318 53.8747 371.318 53.5557V52.9404L371.353 52.2568L371.523 38.9268C371.523 24.2979 371.66 13.235 371.934 5.73828L372.002 2.90137C372.002 2.69629 379.852 2.514 395.552 2.35449C395.688 2.44564 395.894 2.94694 396.167 3.8584V3.75586L396.372 4.43945C398.058 9.27018 400.109 14.8187 402.524 21.085C404.94 27.3285 406.17 30.5186 406.216 30.6553L407.378 30.5869L407.515 2.73047C407.515 2.54818 409.178 2.45703 412.505 2.45703L421.084 2.62793H423.613C423.773 10.1702 423.853 19.319 423.853 30.0742ZM482.437 52.0176C482.437 52.0404 482.448 52.0859 482.471 52.1543L482.368 52.4277H482.402V52.4961C482.402 52.5417 482.391 52.5758 482.368 52.5986C481.297 53.4189 478.677 54.1709 474.507 54.8545C470.36 55.5381 467.5 55.8799 465.928 55.8799C464.378 55.8799 463.512 55.8685 463.33 55.8457L461.587 55.9482C459.764 56.0622 458.716 56.1191 458.442 56.1191C448.872 56.1191 441.58 53.7152 436.567 48.9072C431.577 44.0993 429.082 37.2747 429.082 28.4336C429.082 19.5697 431.771 12.8477 437.148 8.26758C442.549 3.6875 449.852 1.39746 459.058 1.39746C460.744 1.39746 462.817 1.55697 465.278 1.87598C467.762 2.19499 469.938 2.66211 471.807 3.27734C474.085 4.21159 476.034 5.56738 477.651 7.34473C479.292 9.09928 480.363 11.0475 480.864 13.1895C480.955 13.7819 481.058 14.7161 481.172 15.9922C481.309 17.2454 481.423 18.1683 481.514 18.7607C481.377 19.1025 480.887 19.2734 480.044 19.2734L462.681 18.9658C462.59 18.9202 462.476 18.6126 462.339 18.043V18.1455C461.929 16.2998 461.12 15.1719 459.912 14.7617C459.365 14.5566 458.647 14.4541 457.759 14.4541C456.87 14.4541 456.027 14.6022 455.229 14.8984C454.455 15.1947 453.805 15.6048 453.281 16.1289C452.757 16.653 452.29 17.2682 451.88 17.9746C451.47 18.6582 451.162 19.3988 450.957 20.1963C450.752 20.9938 450.57 21.8141 450.41 22.6572C450.251 23.5003 450.148 24.332 450.103 25.1523C450.08 25.9727 450.046 26.7588 450 27.5107C449.977 28.2627 449.977 28.8893 450 29.3906C450.023 29.8691 450.034 30.1882 450.034 30.3477V32.7061C450.034 34.1872 450.103 35.224 450.239 35.8164C450.376 36.3861 450.535 37.0241 450.718 37.7305C450.9 38.4141 451.117 38.9382 451.367 39.3027C452.256 40.556 453.213 41.4333 454.238 41.9346C455.286 42.4131 456.904 42.6523 459.092 42.6523C461.302 42.6523 463.398 42.3219 465.381 41.6611L465.552 36.2607L463.091 36.0557L462.749 36.2266H459.194L458.784 36.2607L457.93 35.3721C457.884 34.9847 457.861 34.3695 457.861 33.5264V25.8701C457.861 25.4827 458.135 25.0954 458.682 24.708H460.972C462.954 24.708 465.176 24.7308 467.637 24.7764H467.979C470.212 24.8219 471.909 24.8447 473.071 24.8447H475.122L475.908 24.8105C479.964 24.8105 482.277 25.0726 482.847 25.5967L482.437 51.5391V52.0176ZM530.117 28.0234C530.117 28.0462 530.106 28.1032 530.083 28.1943V28.2969C529.992 29.2539 529.946 30.3249 529.946 31.5098C529.946 32.6947 530.037 33.9479 530.22 35.2695C530.425 36.5911 530.744 37.9128 531.177 39.2344C531.632 40.556 532.327 41.627 533.262 42.4473C534.264 43.3132 535.381 43.7461 536.611 43.7461C537.865 43.7461 538.913 43.5752 539.756 43.2334C540.622 42.8688 541.34 42.4131 541.909 41.8662C542.502 41.3193 543.014 40.5788 543.447 39.6445C544.541 37.1608 545.088 33.3099 545.088 28.0918C545.088 22.7826 544.473 19.0684 543.242 16.9492C542.035 14.8073 540.2 13.7363 537.739 13.7363C536.509 13.7363 535.426 14.0326 534.492 14.625C533.581 15.2174 532.886 15.8327 532.407 16.4707C531.951 17.1087 531.473 18.4645 530.972 20.5381C530.493 22.6117 530.254 24.5257 530.254 26.2803L530.117 28.0234ZM510.464 28.2969L510.532 27.5449C510.806 24.6966 511.17 22.1787 511.626 19.9912C512.082 17.7809 512.822 15.7188 513.848 13.8047C516.286 9.58919 519.681 6.39909 524.033 4.23438C528.408 2.04688 533.114 0.953125 538.149 0.953125C543.208 0.953125 547.799 1.96712 551.924 3.99512C554.385 5.2028 556.31 6.72949 557.7 8.5752C560.366 11.902 562.121 14.9668 562.964 17.7695C563.807 20.5723 564.229 23.8079 564.229 27.4766C564.229 35.6341 562.542 41.8548 559.17 46.1387L557.598 48.2236C555.479 50.6846 552.482 52.5872 548.608 53.9316C544.735 55.2533 540.895 55.9368 537.09 55.9824C530.573 55.9824 525.229 54.6152 521.06 51.8809C513.996 47.3008 510.464 39.4395 510.464 28.2969ZM621.138 30.0742L621.104 32.3643V45.0107L621.172 51.0264V52.7354L621.206 54.3418C621.069 54.5241 620.511 54.6152 619.531 54.6152H618.643L607.91 54.752C603.353 54.752 599.958 54.7406 597.725 54.7178C597.383 54.3532 596.141 51.0378 593.999 44.7715L587.471 27.4424L586.24 27.6133L586.206 31.0996V40.3623L586.343 49.625V53.4531C586.343 54.4785 586.115 55.014 585.659 55.0596C583.403 54.9912 581.25 54.957 579.199 54.957H578.14L572.979 55.0938H572.295L569.834 55.1621L569.731 55.0938C568.979 54.3874 568.604 53.8747 568.604 53.5557V52.9404L568.638 52.2568L568.809 38.9268C568.809 24.2979 568.945 13.235 569.219 5.73828L569.287 2.90137C569.287 2.69629 577.137 2.514 592.837 2.35449C592.974 2.44564 593.179 2.94694 593.452 3.8584V3.75586L593.657 4.43945C595.343 9.27018 597.394 14.8187 599.81 21.085C602.225 27.3285 603.455 30.5186 603.501 30.6553L604.663 30.5869L604.8 2.73047C604.8 2.54818 606.463 2.45703 609.79 2.45703L618.369 2.62793H620.898C621.058 10.1702 621.138 19.319 621.138 30.0742ZM17.4219 95.6055C17.1484 102.054 17.0117 108.685 17.0117 115.498V125.684H14.5166L13.6621 125.649L1.52832 125.752C0.753581 125.752 0.343424 125.763 0.297852 125.786C0.297852 125.763 0.343424 125.57 0.43457 125.205V125L0.46875 124.863C0.354818 123.223 0.297852 121.229 0.297852 118.882L0.43457 80.7031L0.400391 78.9258V77.2168L0.332031 74.0039C0.332031 73.776 0.457357 73.5368 0.708008 73.2861H5.39062L8.125 73.252C14.5508 73.252 19.1423 73.3431 21.8994 73.5254C24.6794 73.7077 26.6732 73.7988 27.8809 73.7988C28.5417 77.7181 29.5215 82.9134 30.8203 89.3848L33.2471 101.621H34.4434L38.8184 79.2676C38.8867 78.9258 39.0462 77.9346 39.2969 76.2939C39.5475 74.6305 39.7412 73.7077 39.8779 73.5254H40.0146L62.2656 73.3203L63.5986 73.3545H67.4268C67.6318 73.4456 67.7458 73.8672 67.7686 74.6191L68.1104 87.5391C68.3838 98.2487 68.5775 106.589 68.6914 112.559C68.6914 117.161 68.623 121.479 68.4863 125.513C68.418 125.786 67.9622 125.946 67.1191 125.991L65.5811 126.06C64.3506 126.105 63.4391 126.128 62.8467 126.128H61.0693C58.859 126.151 55.6006 126.162 51.2939 126.162C50.4964 125.456 50.0977 122.402 50.0977 117.002L50.166 106.27V103.501C50.166 101.063 50.1546 99.2627 50.1318 98.1006L48.833 97.8613C48.0811 100.618 46.6341 106.759 44.4922 116.284L44.1846 117.651C44.0251 118.358 43.7516 119.622 43.3643 121.445C42.9997 123.245 42.7035 124.613 42.4756 125.547C42.2021 125.866 40.9945 126.025 38.8525 126.025H38.4082L34.5801 125.923L32.4951 125.957H30.8887L28.1885 125.991H27.2314C26.1833 125.991 25.6022 125.752 25.4883 125.273L25.5225 125.308L22.4121 111.738C22.321 111.396 22.1159 110.656 21.7969 109.517C21.4779 108.354 21.2956 107.386 21.25 106.611L18.6865 95.5371L17.4219 95.6055ZM91.6943 99.0234C91.6943 99.0462 91.6829 99.1032 91.6602 99.1943V99.2969C91.569 100.254 91.5234 101.325 91.5234 102.51C91.5234 103.695 91.6146 104.948 91.7969 106.27C92.002 107.591 92.321 108.913 92.7539 110.234C93.2096 111.556 93.9046 112.627 94.8389 113.447C95.8415 114.313 96.958 114.746 98.1885 114.746C99.4417 114.746 100.49 114.575 101.333 114.233C102.199 113.869 102.917 113.413 103.486 112.866C104.079 112.319 104.591 111.579 105.024 110.645C106.118 108.161 106.665 104.31 106.665 99.0918C106.665 93.7826 106.05 90.0684 104.819 87.9492C103.612 85.8073 101.777 84.7363 99.3164 84.7363C98.0859 84.7363 97.0036 85.0326 96.0693 85.625C95.1579 86.2174 94.4629 86.8327 93.9844 87.4707C93.5286 88.1087 93.0501 89.4645 92.5488 91.5381C92.0703 93.6117 91.8311 95.5257 91.8311 97.2803L91.6943 99.0234ZM72.041 99.2969L72.1094 98.5449C72.3828 95.6966 72.7474 93.1787 73.2031 90.9912C73.6589 88.7809 74.3994 86.7188 75.4248 84.8047C77.863 80.5892 81.2581 77.3991 85.6104 75.2344C89.9854 73.0469 94.6908 71.9531 99.7266 71.9531C104.785 71.9531 109.377 72.9671 113.501 74.9951C115.962 76.2028 117.887 77.7295 119.277 79.5752C121.943 82.902 123.698 85.9668 124.541 88.7695C125.384 91.5723 125.806 94.8079 125.806 98.4766C125.806 106.634 124.119 112.855 120.747 117.139L119.175 119.224C117.056 121.685 114.059 123.587 110.186 124.932C106.312 126.253 102.472 126.937 98.667 126.982C92.1501 126.982 86.8066 125.615 82.6367 122.881C75.5729 118.301 72.041 110.439 72.041 99.2969ZM146.211 73.5938L157.183 73.4912C159.507 73.4912 161.615 73.5368 163.506 73.6279C168.587 73.7646 172.45 74.9609 175.093 77.2168C177.759 79.4727 179.092 82.6514 179.092 86.7529C179.092 89.6012 178.26 92.0394 176.597 94.0674C174.933 96.0726 172.507 97.8385 169.316 99.3652C174.375 100.96 177.44 104.834 178.511 110.986C178.761 112.331 178.955 113.869 179.092 115.601C179.251 117.332 179.377 118.494 179.468 119.087L179.81 120.83C180.174 122.881 180.493 124.362 180.767 125.273L180.63 125.376C176.756 125.627 173.213 125.752 170 125.752C166.81 125.752 163.984 125.695 161.523 125.581H161.318C160.612 125.581 159.86 122.22 159.062 115.498L158.892 114.028C158.8 111.522 158.356 109.836 157.559 108.97C156.784 108.104 155.428 107.671 153.491 107.671L153.047 107.705H151.235V118.096L151.27 119.189V125.444C151.201 125.672 151.03 125.809 150.757 125.854C148.25 125.946 144.707 125.991 140.127 125.991C135.57 125.991 132.562 126.003 131.104 126.025L130.898 125.957L130.83 125.991C130.785 125.991 130.716 125.957 130.625 125.889L130.693 122.812L130.659 121.787L130.796 107.603V105.107L130.83 102.544L130.864 93.6914L130.898 92.5293L130.796 84.7705C130.796 84.7705 130.841 81.1361 130.933 73.8672C130.933 73.6849 131.582 73.5938 132.881 73.5938L135.068 73.6279H137.153L141.494 73.6621L146.211 73.5938ZM180.972 125.171L180.801 125.273V125.205C180.801 125.182 180.858 125.171 180.972 125.171ZM180.801 125.273V125.308C180.778 125.308 180.767 125.296 180.767 125.273H180.801ZM158.857 84.7363C157.49 84.1439 155.667 83.8477 153.389 83.8477H151.406C151.156 84.2122 151.03 86.1377 151.03 89.624C151.03 93.0876 151.087 95.4118 151.201 96.5967C158.333 96.4372 161.899 93.9762 161.899 89.2139C161.899 87.1859 160.885 85.6934 158.857 84.7363ZM184.39 82.6855L184.219 73.6963C184.242 73.6963 184.321 73.7305 184.458 73.7988C201.776 73.5026 214.821 73.3431 223.594 73.3203C223.685 73.3659 223.753 73.4342 223.799 73.5254V83.1641C223.799 84.0983 223.776 84.8617 223.73 85.4541C223.617 85.8187 222.944 86.001 221.714 86.001H221.475C215.96 86.001 210.218 85.9098 204.248 85.7275C204.248 85.9326 204.214 86.2972 204.146 86.8213C204.1 87.3454 204.066 87.7214 204.043 87.9492L203.872 89.248C203.758 90.1139 203.678 91.6178 203.633 93.7598L214.229 93.5205C216.051 93.4749 217.373 93.4521 218.193 93.4521H218.74C220.13 93.4521 221.042 93.4977 221.475 93.5889C221.908 93.6572 222.124 93.8851 222.124 94.2725L222.09 94.5459V95.3662L222.261 104.15L222.227 104.185V104.15C215.299 104.492 209.762 104.663 205.615 104.663H204.009V112.935L222.568 112.354C223.594 112.354 224.243 112.502 224.517 112.798C224.494 113.39 224.482 114.233 224.482 115.327L224.722 124.624C224.722 125.194 224.471 125.524 223.97 125.615L212.622 125.513C210.389 125.513 205.946 125.592 199.292 125.752L193.687 125.889C189.722 126.025 186.782 126.094 184.868 126.094L184.766 126.025H184.8C184.572 125.798 184.355 125.581 184.15 125.376V124.18L184.355 87.6416L184.39 82.6855ZM253.604 102.407L253.672 88.3594V74.1064C253.717 74.0837 253.934 74.0723 254.321 74.0723H255.586C256.064 74.0723 256.429 74.0495 256.68 74.0039L260.918 73.833C262.012 73.7874 262.855 73.7646 263.447 73.7646H268.882L278.931 73.5254C280.298 73.5254 281.802 73.5824 283.442 73.6963H283.682C284.456 73.6507 284.946 73.6279 285.151 73.6279C289.709 73.6279 293.605 75.0749 296.841 77.9688C298.413 79.3587 299.655 81.1475 300.566 83.335C301.478 85.5225 301.934 87.7897 301.934 90.1367C301.934 92.4609 301.694 94.4434 301.216 96.084C300.737 97.7246 300.122 99.1146 299.37 100.254C296.362 104.857 290.54 107.546 281.904 108.32L274.521 108.628C274.294 114.097 274.18 118.346 274.18 121.377L274.214 122.437V125.205C274.123 125.524 273.952 125.741 273.701 125.854L254.185 126.162C253.797 125.068 253.604 123.314 253.604 120.898V102.407ZM283.511 87.7441C282.599 85.3516 280.184 84.0755 276.265 83.916C275.695 83.8932 274.909 83.8818 273.906 83.8818C273.633 83.8818 273.462 87.2428 273.394 93.9648L273.325 96.5283L273.428 98.5791C276.23 98.5335 278.691 97.9411 280.811 96.8018C282.952 95.6624 284.023 93.5889 284.023 90.5811C284.023 89.305 283.853 88.3594 283.511 87.7441ZM320.938 73.5938L331.909 73.4912C334.233 73.4912 336.341 73.5368 338.232 73.6279C343.314 73.7646 347.176 74.9609 349.819 77.2168C352.485 79.4727 353.818 82.6514 353.818 86.7529C353.818 89.6012 352.987 92.0394 351.323 94.0674C349.66 96.0726 347.233 97.8385 344.043 99.3652C349.102 100.96 352.166 104.834 353.237 110.986C353.488 112.331 353.682 113.869 353.818 115.601C353.978 117.332 354.103 118.494 354.194 119.087L354.536 120.83C354.901 122.881 355.22 124.362 355.493 125.273L355.356 125.376C351.483 125.627 347.939 125.752 344.727 125.752C341.536 125.752 338.711 125.695 336.25 125.581H336.045C335.339 125.581 334.587 122.22 333.789 115.498L333.618 114.028C333.527 111.522 333.083 109.836 332.285 108.97C331.51 108.104 330.155 107.671 328.218 107.671L327.773 107.705H325.962V118.096L325.996 119.189V125.444C325.928 125.672 325.757 125.809 325.483 125.854C322.977 125.946 319.434 125.991 314.854 125.991C310.296 125.991 307.288 126.003 305.83 126.025L305.625 125.957L305.557 125.991C305.511 125.991 305.443 125.957 305.352 125.889L305.42 122.812L305.386 121.787L305.522 107.603V105.107L305.557 102.544L305.591 93.6914L305.625 92.5293L305.522 84.7705C305.522 84.7705 305.568 81.1361 305.659 73.8672C305.659 73.6849 306.309 73.5938 307.607 73.5938L309.795 73.6279H311.88L316.221 73.6621L320.938 73.5938ZM355.698 125.171L355.527 125.273V125.205C355.527 125.182 355.584 125.171 355.698 125.171ZM355.527 125.273V125.308C355.505 125.308 355.493 125.296 355.493 125.273H355.527ZM333.584 84.7363C332.217 84.1439 330.394 83.8477 328.115 83.8477H326.133C325.882 84.2122 325.757 86.1377 325.757 89.624C325.757 93.0876 325.814 95.4118 325.928 96.5967C333.06 96.4372 336.626 93.9762 336.626 89.2139C336.626 87.1859 335.612 85.6934 333.584 84.7363ZM376.069 99.0234C376.069 99.0462 376.058 99.1032 376.035 99.1943V99.2969C375.944 100.254 375.898 101.325 375.898 102.51C375.898 103.695 375.99 104.948 376.172 106.27C376.377 107.591 376.696 108.913 377.129 110.234C377.585 111.556 378.28 112.627 379.214 113.447C380.216 114.313 381.333 114.746 382.563 114.746C383.817 114.746 384.865 114.575 385.708 114.233C386.574 113.869 387.292 113.413 387.861 112.866C388.454 112.319 388.966 111.579 389.399 110.645C390.493 108.161 391.04 104.31 391.04 99.0918C391.04 93.7826 390.425 90.0684 389.194 87.9492C387.987 85.8073 386.152 84.7363 383.691 84.7363C382.461 84.7363 381.379 85.0326 380.444 85.625C379.533 86.2174 378.838 86.8327 378.359 87.4707C377.904 88.1087 377.425 89.4645 376.924 91.5381C376.445 93.6117 376.206 95.5257 376.206 97.2803L376.069 99.0234ZM356.416 99.2969L356.484 98.5449C356.758 95.6966 357.122 93.1787 357.578 90.9912C358.034 88.7809 358.774 86.7188 359.8 84.8047C362.238 80.5892 365.633 77.3991 369.985 75.2344C374.36 73.0469 379.066 71.9531 384.102 71.9531C389.16 71.9531 393.752 72.9671 397.876 74.9951C400.337 76.2028 402.262 77.7295 403.652 79.5752C406.318 82.902 408.073 85.9668 408.916 88.7695C409.759 91.5723 410.181 94.8079 410.181 98.4766C410.181 106.634 408.494 112.855 405.122 117.139L403.55 119.224C401.431 121.685 398.434 123.587 394.561 124.932C390.687 126.253 386.847 126.937 383.042 126.982C376.525 126.982 371.182 125.615 367.012 122.881C359.948 118.301 356.416 110.439 356.416 99.2969ZM415.923 108.013L420.024 108.047H421.221L421.665 108.013L427.441 108.115C428.467 108.184 429.036 108.822 429.15 110.029C429.196 110.508 429.253 110.986 429.321 111.465C429.481 112.604 430.301 113.174 431.782 113.174C433.286 113.174 434.243 112.467 434.653 111.055C434.95 109.961 435.098 108.662 435.098 107.158V106.27H434.995L434.858 101.416C434.767 98.2487 434.722 93.5661 434.722 87.3682C434.722 81.1702 434.767 76.6813 434.858 73.9014L434.824 73.8672C434.824 73.6849 434.893 73.5482 435.029 73.457L435.474 73.3887L437.148 73.4229H449.658L452.153 73.3887H455.503C455.685 73.3887 455.822 73.4912 455.913 73.6963C455.868 74.1976 455.845 74.9609 455.845 75.9863V76.5332L455.811 77.1143L455.742 78.8574C455.583 83.1868 455.503 89.6126 455.503 98.1348V101.895C455.503 105.107 455.492 107.796 455.469 109.961C455.446 112.103 454.91 114.256 453.862 116.421C452.837 118.563 451.538 120.283 449.966 121.582C448.416 122.858 446.616 123.918 444.565 124.761C440.942 126.242 437.16 126.982 433.218 126.982C429.276 126.982 425.983 126.584 423.34 125.786C420.993 125.194 419.045 124.294 417.495 123.086C415.968 121.855 414.784 120.693 413.94 119.6C412.072 117.139 411.138 114.108 411.138 110.508V109.619L411.104 109.209C411.104 108.32 411.24 107.876 411.514 107.876L415.923 108.013ZM462.681 82.6855L462.51 73.6963C462.533 73.6963 462.612 73.7305 462.749 73.7988C480.067 73.5026 493.112 73.3431 501.885 73.3203C501.976 73.3659 502.044 73.4342 502.09 73.5254V83.1641C502.09 84.0983 502.067 84.8617 502.021 85.4541C501.908 85.8187 501.235 86.001 500.005 86.001H499.766C494.251 86.001 488.509 85.9098 482.539 85.7275C482.539 85.9326 482.505 86.2972 482.437 86.8213C482.391 87.3454 482.357 87.7214 482.334 87.9492L482.163 89.248C482.049 90.1139 481.969 91.6178 481.924 93.7598L492.52 93.5205C494.342 93.4749 495.664 93.4521 496.484 93.4521H497.031C498.421 93.4521 499.333 93.4977 499.766 93.5889C500.199 93.6572 500.415 93.8851 500.415 94.2725L500.381 94.5459V95.3662L500.552 104.15L500.518 104.185V104.15C493.59 104.492 488.053 104.663 483.906 104.663H482.3V112.935L500.859 112.354C501.885 112.354 502.534 112.502 502.808 112.798C502.785 113.39 502.773 114.233 502.773 115.327L503.013 124.624C503.013 125.194 502.762 125.524 502.261 125.615L490.913 125.513C488.68 125.513 484.237 125.592 477.583 125.752L471.978 125.889C468.013 126.025 465.073 126.094 463.159 126.094L463.057 126.025H463.091C462.863 125.798 462.646 125.581 462.441 125.376V124.18L462.646 87.6416L462.681 82.6855ZM505.098 97.7588C505.645 92.5635 506.556 88.6556 507.832 86.0352C510.27 80.9766 513.905 77.3877 518.735 75.2686C523.042 73.3773 527.725 72.4316 532.783 72.4316C541.26 72.4316 547.446 74.7559 551.343 79.4043C553.69 82.1615 555.046 85.5908 555.41 89.6924L555.718 92.9053C555.33 93.2699 552.881 93.4521 548.369 93.4521L542.935 93.3838H542.49L539.517 93.3154L538.696 93.3496H538.013C537.375 93.3496 536.885 92.4154 536.543 90.5469C536.224 88.6784 535.723 87.4479 535.039 86.8555C534.378 86.2402 533.604 85.9326 532.715 85.9326C531.826 85.9326 531.04 86.0921 530.356 86.4111C529.696 86.7301 529.149 87.1175 528.716 87.5732C528.283 88.0062 527.918 88.6328 527.622 89.4531C527.075 90.8659 526.745 92.3698 526.631 93.9648C526.517 95.5371 526.46 97.3031 526.46 99.2627V100.083L526.323 103.535C526.323 109.824 528.101 113.037 531.655 113.174C532.567 113.174 533.205 113.014 533.569 112.695C534.549 111.829 535.404 110.086 536.133 107.466C536.292 106.919 536.486 106.475 536.714 106.133H538.013L539.585 106.167H545.122L546.797 106.133L550.044 106.167H552.026L554.043 106.201H555.41C555.684 106.224 555.877 106.463 555.991 106.919L555.889 108.047C555.684 110.736 555.057 113.174 554.009 115.361C552.072 119.372 549.019 122.357 544.849 124.316C540.701 126.253 536.144 127.222 531.177 127.222C522.495 127.222 515.978 124.658 511.626 119.531C507.274 114.404 505.098 107.147 505.098 97.7588ZM602.305 86.2061C602.305 86.958 602.225 87.334 602.065 87.334C602.065 87.334 597.941 87.2998 589.692 87.2314C589.647 89.4417 589.624 92.8939 589.624 97.5879C589.624 102.282 589.635 105.54 589.658 107.363L589.795 125.479C589.681 125.798 589.453 125.968 589.111 125.991L581.899 125.889L581.865 125.923L579.609 125.889H573.354C571.668 125.889 570.404 125.9 569.561 125.923L568.979 125.41C568.957 125.387 568.809 125.205 568.535 124.863C568.535 122.858 568.615 118.403 568.774 111.499L569.15 93.3154L569.082 92.4609C568.923 90.2051 568.763 88.8721 568.604 88.4619C568.467 88.029 568.182 87.8011 567.749 87.7783C567.316 87.7327 566.997 87.71 566.792 87.71L565.425 87.7783L556.948 87.6416C556.652 87.0492 556.504 85.7161 556.504 83.6426L556.572 80.6348V79.7119C556.549 76.0661 556.515 74.1178 556.47 73.8672C556.515 73.8672 556.606 73.89 556.743 73.9355L600.254 73.5596C601.143 73.5596 601.701 73.6279 601.929 73.7646C602.157 73.8786 602.271 74.1064 602.271 74.4482V83.4717L602.305 86.2061ZM603.774 110.884L621.855 110.576C622.311 110.576 622.687 110.964 622.983 111.738C623.302 112.513 623.61 113.128 623.906 113.584C624.613 114.678 625.775 115.225 627.393 115.225C629.033 115.225 630.355 114.849 631.357 114.097C632.36 113.322 632.861 112.331 632.861 111.123C632.861 109.915 632.554 109.095 631.938 108.662C631.323 108.206 630.651 107.773 629.922 107.363C629.193 106.93 628.11 106.6 626.675 106.372C625.262 106.144 624.487 106.007 624.351 105.962H624.419L622.471 105.449C621.217 105.221 620.169 104.971 619.326 104.697C613.88 103.239 609.938 101.405 607.5 99.1943C605.085 96.984 603.877 94.0104 603.877 90.2734C603.877 87.5618 604.378 85.1237 605.381 82.959C606.383 80.7943 607.694 79.0283 609.312 77.6611C613.983 73.7191 620.431 71.748 628.657 71.748C635.197 71.748 640.335 72.9329 644.072 75.3027H644.038C646.431 77.0345 648.071 78.7435 648.96 80.4297C649.849 82.0931 650.407 84.1553 650.635 86.6162L649.746 87.5049C643.753 87.7327 638.444 87.8467 633.818 87.8467C632.428 87.8467 631.597 87.4365 631.323 86.6162C631.209 86.2744 631.084 85.9326 630.947 85.5908C630.628 84.7705 629.603 84.3604 627.871 84.3604H627.734C626.39 84.3604 625.239 84.6794 624.282 85.3174C623.325 85.9326 622.835 86.5365 622.812 87.1289C622.812 87.7214 622.938 88.2113 623.188 88.5986C623.462 88.986 623.747 89.2936 624.043 89.5215C624.339 89.7493 624.795 89.9886 625.41 90.2393C626.025 90.4671 626.481 90.6266 626.777 90.7178C627.096 90.7861 627.586 90.9115 628.247 91.0938L629.443 91.4014C629.922 91.5381 631.312 91.8799 633.613 92.4268C635.938 92.9736 637.874 93.4977 639.424 93.999V93.9648C644.277 95.6055 647.581 97.6562 649.336 100.117C651.113 102.555 652.002 105.404 652.002 108.662C652.002 117.344 646.818 122.972 636.45 125.547C633.442 126.299 630.229 126.834 626.812 127.153C622.619 127.153 618.472 126.538 614.37 125.308C610.269 124.077 607.523 122.072 606.133 119.292C605.199 117.948 604.572 116.717 604.253 115.601C603.934 114.461 603.672 112.878 603.467 110.85C603.535 110.872 603.638 110.884 603.774 110.884ZM671.86 116.318C671.86 118.757 671.895 120.488 671.963 121.514V123.872L671.997 124.316C671.997 125.182 671.963 125.615 671.895 125.615C671.849 125.615 669.924 125.706 666.118 125.889C662.336 126.094 658.564 126.196 654.805 126.196L654.019 124.966C653.996 124.761 653.984 124.487 653.984 124.146L654.087 120.591V118.745C654.087 113.755 654.246 111.089 654.565 110.747C659.897 110.793 663.931 110.815 666.665 110.815H668.237L669.023 110.781C670.846 110.781 671.758 110.884 671.758 111.089L671.86 116.318ZM698.384 116.318C698.384 118.757 698.418 120.488 698.486 121.514V123.872L698.521 124.316C698.521 125.182 698.486 125.615 698.418 125.615C698.372 125.615 696.447 125.706 692.642 125.889C688.859 126.094 685.088 126.196 681.328 126.196L680.542 124.966C680.519 124.761 680.508 124.487 680.508 124.146L680.61 120.591V118.745C680.61 113.755 680.77 111.089 681.089 110.747C686.421 110.793 690.454 110.815 693.188 110.815H694.761L695.547 110.781C697.37 110.781 698.281 110.884 698.281 111.089L698.384 116.318ZM724.907 116.318C724.907 118.757 724.941 120.488 725.01 121.514V123.872L725.044 124.316C725.044 125.182 725.01 125.615 724.941 125.615C724.896 125.615 722.97 125.706 719.165 125.889C715.382 126.094 711.611 126.196 707.852 126.196L707.065 124.966C707.043 124.761 707.031 124.487 707.031 124.146L707.134 120.591V118.745C707.134 113.755 707.293 111.089 707.612 110.747C712.944 110.793 716.978 110.815 719.712 110.815H721.284L722.07 110.781C723.893 110.781 724.805 110.884 724.805 111.089L724.907 116.318Z" fill="url(#paint0_linear_2002_1216)"/>
<defs>
<linearGradient id="paint0_linear_2002_1216" x1="390.5" y1="-4" x2="390.5" y2="179.5" gradientUnits="userSpaceOnUse">
<stop stop-color="#E9E3DC"/>
<stop offset="1" stop-color="#83807C"/>
</linearGradient>
</defs>
</svg>
